<?xml version="1.0" encoding="utf-8"?>
<!-- Generator: Adobe Illustrator 24.0.0, SVG Export Plug-In . SVG Version: 6.00 Build 0)  -->
<svg version="1.1" id="Layer_1" xmlns="http://www.w3.org/2000/svg" xmlns:xlink="http://www.w3.org/1999/xlink" x="0px" y="0px"
	 viewBox="0 0 864 864" style="enable-background:new 0 0 864 864;" xml:space="preserve">
<style type="text/css">
	.st0{fill:#877EFF;}
	.st1{fill:#FFFFFF;}
</style>
<g>
	<path class="st0" d="M413.52,434.45v37.74c0,0.6-0.04,1.2-0.15,1.79c-0.04,0.27-0.08,0.54-0.17,0.79
		c-0.02,0.08-0.04,0.19-0.06,0.27c-1.27,4.94-5.73,8.58-11.05,8.58c-5.71,0-10.43-4.18-11.28-9.64c-0.1-0.58-0.15-1.18-0.15-1.79
		V369.78c0-0.39,0-0.79-0.04-1.16c-0.77-15.06-13.27-27.11-28.54-27.11c-15.77,0-28.58,12.84-28.58,28.58v61.59
		c0,0.6-0.04,1.2-0.15,1.79c-0.85,5.46-5.57,9.64-11.28,9.64c-5.71,0-10.43-4.18-11.28-9.64c-0.1-0.58-0.15-1.18-0.15-1.79v-61.59
		c0-28.35,23.08-51.43,51.43-51.43c21.71,0,40.32,13.52,47.84,32.57c1.99,4.99,3.2,10.34,3.51,15.95v65c0,0.1,0,0.23,0.02,0.33v0.25
		c-0.02,0.42,0,0.81,0.04,1.23C413.5,434.14,413.5,434.3,413.52,434.45z"/>
	<path class="st0" d="M374.8,370.76v61.59c0,28.35-23.08,51.43-51.43,51.43c-28.37,0-51.43-23.08-51.43-51.43v-73.04
		c0-0.6,0.04-1.2,0.15-1.79c0.85-5.46,5.57-9.64,11.28-9.64s10.43,4.18,11.28,9.64c0.1,0.58,0.15,1.18,0.15,1.79v73.04
		c0,15.75,12.82,28.58,28.58,28.58c15.77,0,28.58-12.84,28.58-28.58v-61.59c0-0.6,0.04-1.2,0.15-1.79
		c0.85-5.46,5.57-9.64,11.28-9.64c5.71,0,10.43,4.18,11.28,9.64C374.76,369.55,374.8,370.16,374.8,370.76z"/>
	<path class="st1" d="M294.77,329.94c0,0.6-0.04,1.2-0.15,1.79c-0.85,5.46-5.57,9.64-11.28,9.64s-10.43-4.18-11.28-9.64
		c-0.1-0.58-0.15-1.18-0.15-1.79c0-6.31,5.11-11.42,11.42-11.42S294.77,323.62,294.77,329.94z"/>
	<path class="st1" d="M254.92,431.68v0.66c0,28.35-23.08,51.43-51.43,51.43c-28.37,0-51.43-23.08-51.43-51.43V329.94
		c0-0.6,0.04-1.2,0.15-1.79c0.85-5.46,5.57-9.64,11.28-9.64s10.43,4.18,11.28,9.64c0.1,0.58,0.15,1.18,0.15,1.79v102.41
		c0,6.11,1.93,11.78,5.21,16.43c5.17,7.35,13.71,12.15,23.37,12.15c9.66,0,18.22-4.82,23.39-12.17c3.28-4.65,5.19-10.3,5.19-16.41
		v-0.66c0-6.31,5.11-11.42,11.42-11.42C249.81,420.26,254.92,425.37,254.92,431.68z"/>
	<path class="st1" d="M686.24,369.95v0.66c0,6.31-5.11,11.42-11.42,11.42c-6.31,0-11.42-5.11-11.42-11.42v-0.66
		c0-6.11-1.91-11.76-5.19-16.41c-5.17-7.35-13.73-12.17-23.39-12.17c-9.66,0-18.2,4.8-23.37,12.15c-3.28,4.65-5.21,10.32-5.21,16.43
		v20.34h12.75c6.13,0.19,11.03,5.21,11.03,11.4c0,0.6-0.04,1.2-0.15,1.79c-0.79,5.07-4.92,9.04-10.07,9.58h-9.8
		c-0.1,0-0.23,0-0.33,0.02c-0.5-0.02-0.98,0-1.47,0.04c-0.15,0-0.31,0-0.46,0.02h-1.5v59.22c0,0.6-0.04,1.2-0.15,1.79
		c-0.85,5.46-5.57,9.64-11.28,9.64s-10.43-4.18-11.28-9.64c-0.1-0.58-0.15-1.18-0.15-1.79v-59.22h-13.4c-0.6,0-1.2-0.04-1.79-0.15
		c-0.27-0.04-0.54-0.08-0.79-0.17c-0.08-0.02-0.19-0.04-0.27-0.06c-4.94-1.27-8.58-5.73-8.58-11.05c0-5.71,4.18-10.43,9.64-11.28
		c0.58-0.1,1.18-0.15,1.79-0.15h13.4v-20.34c0-28.35,23.06-51.43,51.43-51.43C663.16,318.52,686.24,341.6,686.24,369.95z"/>
	<path class="st1" d="M509.46,474c-3.8,4.28-10.05,5.01-14.71,2.01c-0.5-0.31-0.98-0.69-1.43-1.08l-37.93-33.78l-2.53,1.93v29.27
		c0,0.6-0.04,1.2-0.15,1.79c-0.04,0.27-0.08,0.54-0.17,0.79c-1.16,5.07-5.69,8.85-11.11,8.85c-5.71,0-10.43-4.18-11.28-9.64
		c-0.1-0.58-0.15-1.18-0.15-1.79V369.95c0-0.77-0.02-1.52-0.08-2.26v-37.74c0-0.6,0.04-1.2,0.15-1.79c0.04-0.27,0.08-0.54,0.17-0.79
		c1.16-5.07,5.69-8.85,11.11-8.85c5.71,0,10.43,4.18,11.28,9.64c0.1,0.58,0.15,1.18,0.15,1.79v84.48l0.08-0.06l3.59-2.76l5.82-4.47
		c0.62-0.46,1.2-0.93,1.74-1.43l29.93-22.99c0.48-0.37,1-0.71,1.52-0.98c0.23-0.12,0.48-0.25,0.73-0.33
		c4.72-2.18,10.49-0.89,13.79,3.41c3.47,4.53,3.03,10.82-0.79,14.83c-0.39,0.44-0.85,0.83-1.33,1.2l-34.09,26.19l4.82,4.3
		c0.56,0.5,1.14,0.98,1.74,1.43l28.19,25.11c0.44,0.39,0.87,0.83,1.23,1.29c0.19,0.21,0.35,0.42,0.48,0.64
		C513.24,464.07,513.06,469.95,509.46,474z"/>
	<path class="st1" d="M548.6,330.25c0,0.6-0.04,1.2-0.15,1.79c-0.85,5.46-5.57,9.64-11.28,9.64s-10.43-4.18-11.28-9.64
		c-0.1-0.58-0.15-1.18-0.15-1.79c0-6.31,5.11-11.42,11.42-11.42C543.49,318.83,548.6,323.94,548.6,330.25z"/>
	<path class="st1" d="M548.68,434.61v37.74c0,0.6-0.04,1.2-0.15,1.79c-0.04,0.27-0.08,0.54-0.17,0.79
		c-0.02,0.08-0.04,0.19-0.06,0.27c-1.27,4.94-5.73,8.58-11.05,8.58c-5.71,0-10.43-4.18-11.28-9.64c-0.1-0.58-0.15-1.18-0.15-1.79
		V369.95c0-0.64-0.02-1.27-0.06-1.89v-8.41c0-0.6,0.04-1.2,0.15-1.79c0.85-5.46,5.57-9.64,11.28-9.64c5.71,0,10.43,4.18,11.28,9.64
		c0.08,0.44,0.12,0.89,0.12,1.35v73.14c0,0.1,0,0.23,0.02,0.33c-0.02,0.5,0,0.98,0.04,1.47
		C548.66,434.3,548.66,434.47,548.68,434.61z"/>
	<path class="st1" d="M722.83,330.66c0,0.6-0.04,1.2-0.15,1.79c-0.85,5.46-5.57,9.64-11.28,9.64c-5.71,0-10.43-4.18-11.28-9.64
		c-0.1-0.58-0.15-1.18-0.15-1.79c0-6.31,5.11-11.42,11.42-11.42C717.72,319.23,722.83,324.34,722.83,330.66z"/>
	<path class="st1" d="M722.92,435.02v37.74c0,0.6-0.04,1.2-0.15,1.79c-0.04,0.27-0.08,0.54-0.17,0.79
		c-0.02,0.08-0.04,0.19-0.06,0.27c-1.27,4.94-5.73,8.58-11.05,8.58c-5.71,0-10.43-4.18-11.28-9.64c-0.1-0.58-0.15-1.18-0.15-1.79
		V370.35c0-0.64-0.02-1.27-0.06-1.89v-8.41c0-0.6,0.04-1.2,0.15-1.79c0.85-5.46,5.57-9.64,11.28-9.64s10.43,4.18,11.28,9.64
		c0.08,0.44,0.12,0.89,0.12,1.35v73.14c0,0.1,0,0.23,0.02,0.33c-0.02,0.5,0,0.98,0.04,1.47C722.9,434.71,722.9,434.87,722.92,435.02
		z"/>
	<path class="st1" d="M764.14,330.66c0,0.6-0.04,1.2-0.15,1.79c-0.85,5.46-5.57,9.64-11.28,9.64c-5.71,0-10.43-4.18-11.28-9.64
		c-0.1-0.58-0.15-1.18-0.15-1.79c0-6.31,5.11-11.42,11.42-11.42C759.03,319.23,764.14,324.34,764.14,330.66z"/>
	<path class="st1" d="M764.22,435.02v37.74c0,0.6-0.04,1.2-0.15,1.79c-0.04,0.27-0.08,0.54-0.17,0.79
		c-0.02,0.08-0.04,0.19-0.06,0.27c-1.27,4.94-5.73,8.58-11.05,8.58c-5.71,0-10.43-4.18-11.28-9.64c-0.1-0.58-0.15-1.18-0.15-1.79
		V370.35c0-0.64-0.02-1.27-0.06-1.89v-8.41c0-0.6,0.04-1.2,0.15-1.79c0.85-5.46,5.57-9.64,11.28-9.64c5.71,0,10.43,4.18,11.28,9.64
		c0.08,0.44,0.12,0.89,0.12,1.35v73.14c0,0.1,0,0.23,0.02,0.33c-0.02,0.5,0,0.98,0.04,1.47C764.2,434.71,764.2,434.87,764.22,435.02
		z"/>
</g>
</svg>
